<svg width="24" height="24" viewBox="0 0 24 24" fill="none" xmlns="http://www.w3.org/2000/svg">
<path fill-rule="evenodd" clip-rule="evenodd" d="M9.34418 8.94693L13.3192 22.1926C13.3443 22.2961 13.3781 22.3985 13.4208 22.4988C13.7259 23.2144 14.4305 23.6804 15.2099 23.6804C15.5892 23.6804 15.9559 23.5706 16.2678 23.3681C16.3948 23.2864 16.5128 23.1894 16.6189 23.0785C16.8562 22.8323 17.0212 22.5298 17.1028 22.2043L22.9181 2.82735C22.9791 2.6221 23.0069 2.40297 22.9986 2.18384C22.9653 1.40442 22.4688 0.722079 21.7393 0.447478C21.0098 0.170103 20.186 0.358718 19.6451 0.921789C19.426 1.15201 19.2706 1.42939 19.1847 1.7234L15.2124 14.9553L11.2517 1.75669L11.2378 1.70676C11.0631 1.13537 10.6359 0.661059 10.059 0.444707C9.32949 0.170106 8.50569 0.355947 7.96481 0.919018C7.73875 1.15663 7.58109 1.44064 7.49679 1.74322L7.49604 1.74561L3.90126 13.3648L3.89848 13.3759C3.76257 13.8059 3.78199 14.2802 3.96783 14.7157C4.27294 15.4341 4.97747 15.8973 5.7569 15.8973C6.28946 15.8973 6.79705 15.6809 7.16319 15.2981C7.37399 15.0762 7.52932 14.8127 7.61808 14.527L7.6264 14.4993L9.34418 8.94693ZM1.40768 22.2991C1.76272 23.134 2.58375 23.6749 3.49077 23.6749C4.10931 23.6749 4.70012 23.4224 5.12728 22.9759C5.55444 22.5293 5.78188 21.9274 5.75415 21.3088C5.71531 20.4018 5.13837 19.6058 4.28961 19.2868C3.44084 18.9678 2.48112 19.1869 1.85425 19.8415C1.22739 20.4989 1.05264 21.4642 1.40768 22.2991Z" fill="white"/>
</svg>
