<svg width="187" height="32" viewBox="0 0 187 32" fill="none" xmlns="http://www.w3.org/2000/svg">
<path d="M39.25 23.9993H41.1042V12.3431H41.2708L49.4271 23.9993H51.25V8.9681H49.3958V20.666H49.2292L41.0729 8.9681H39.25V23.9993Z" fill="#307DFB"/>
<path d="M59.4687 24.1973C62.6667 24.1973 64.6458 21.9889 64.6458 18.3952V18.3743C64.6458 14.7702 62.6667 12.5723 59.4687 12.5723C56.2708 12.5723 54.2917 14.7702 54.2917 18.3743V18.3952C54.2917 21.9889 56.2708 24.1973 59.4687 24.1973ZM59.4687 22.5931C57.3437 22.5931 56.1458 21.041 56.1458 18.3952V18.3743C56.1458 15.7181 57.3437 14.1764 59.4687 14.1764C61.5937 14.1764 62.7917 15.7181 62.7917 18.3743V18.3952C62.7917 21.041 61.5937 22.5931 59.4687 22.5931Z" fill="#307DFB"/>
<path d="M71.4479 24.0827C71.8021 24.0827 72.1458 24.041 72.5 23.9785V22.4368C72.1667 22.4681 71.9896 22.4785 71.6667 22.4785C70.5 22.4785 70.0417 21.9473 70.0417 20.6243V14.2702H72.5V12.7702H70.0417V9.86393H68.1667V12.7702H66.3958V14.2702H68.1667V21.0827C68.1667 23.2285 69.1354 24.0827 71.4479 24.0827Z" fill="#307DFB"/>
<path d="M79.1979 24.0827C79.5521 24.0827 79.8958 24.041 80.25 23.9785V22.4368C79.9167 22.4681 79.7396 22.4785 79.4167 22.4785C78.25 22.4785 77.7917 21.9473 77.7917 20.6243V14.2702H80.25V12.7702H77.7917V9.86393H75.9167V12.7702H74.1458V14.2702H75.9167V21.0827C75.9167 23.2285 76.8854 24.0827 79.1979 24.0827Z" fill="#307DFB"/>
<path d="M86.0417 24.1973C87.5521 24.1973 88.7292 23.541 89.4375 22.3431H89.6042V23.9993H91.4167V16.3118C91.4167 13.9785 89.8854 12.5723 87.1458 12.5723C84.75 12.5723 83.0417 13.7598 82.75 15.5202L82.7396 15.5827H84.5521L84.5625 15.5514C84.8542 14.6764 85.7396 14.1764 87.0833 14.1764C88.7604 14.1764 89.6042 14.9264 89.6042 16.3118V17.3327L86.3854 17.5306C83.7708 17.6868 82.2917 18.8431 82.2917 20.8431V20.8639C82.2917 22.9056 83.9062 24.1973 86.0417 24.1973ZM84.1458 20.8223V20.8014C84.1458 19.6868 84.8958 19.0827 86.6042 18.9785L89.6042 18.791V19.8118C89.6042 21.416 88.2604 22.6243 86.4167 22.6243C85.1146 22.6243 84.1458 21.9577 84.1458 20.8223Z" fill="#307DFB"/>
<path d="M96.2083 24.1035C96.9583 24.1035 97.5625 23.4889 97.5625 22.7493C97.5625 21.9993 96.9583 21.3952 96.2083 21.3952C95.4687 21.3952 94.8542 21.9993 94.8542 22.7493C94.8542 23.4889 95.4687 24.1035 96.2083 24.1035Z" fill="#307DFB"/>
<path d="M101.062 23.9993H102.875V17.041C102.875 15.4577 103.99 14.1764 105.458 14.1764C106.875 14.1764 107.792 15.041 107.792 16.3743V23.9993H109.604V16.7806C109.604 15.3535 110.635 14.1764 112.198 14.1764C113.781 14.1764 114.542 14.9993 114.542 16.6556V23.9993H116.354V16.2389C116.354 13.8848 115.073 12.5723 112.781 12.5723C111.229 12.5723 109.948 13.3535 109.344 14.541H109.177C108.656 13.3743 107.594 12.5723 106.073 12.5723C104.604 12.5723 103.542 13.2702 103.042 14.4785H102.875V12.7702H101.062V23.9993Z" fill="#307DFB"/>
<path d="M124.208 24.1973C126.854 24.1973 128.458 22.6973 128.844 21.1764L128.865 21.0931H127.052L127.01 21.1868C126.708 21.8639 125.771 22.5827 124.25 22.5827C122.25 22.5827 120.969 21.2285 120.917 18.9056H129V18.1973C129 14.8431 127.146 12.5723 124.094 12.5723C121.042 12.5723 119.062 14.9473 119.062 18.416V18.4264C119.062 21.9473 121 24.1973 124.208 24.1973ZM124.083 14.1868C125.74 14.1868 126.969 15.2389 127.156 17.4577H120.948C121.146 15.3223 122.417 14.1868 124.083 14.1868Z" fill="#307DFB"/>
<path d="M136.396 24.1973C139.042 24.1973 140.646 22.6973 141.031 21.1764L141.052 21.0931H139.24L139.198 21.1868C138.896 21.8639 137.958 22.5827 136.437 22.5827C134.437 22.5827 133.156 21.2285 133.104 18.9056H141.187V18.1973C141.187 14.8431 139.333 12.5723 136.281 12.5723C133.229 12.5723 131.25 14.9473 131.25 18.416V18.4264C131.25 21.9473 133.187 24.1973 136.396 24.1973ZM136.271 14.1868C137.927 14.1868 139.156 15.2389 139.344 17.4577H133.135C133.333 15.3223 134.604 14.1868 136.271 14.1868Z" fill="#307DFB"/>
<path d="M147.99 24.0827C148.344 24.0827 148.687 24.041 149.042 23.9785V22.4368C148.708 22.4681 148.531 22.4785 148.208 22.4785C147.042 22.4785 146.583 21.9473 146.583 20.6243V14.2702H149.042V12.7702H146.583V9.86393H144.708V12.7702H142.937V14.2702H144.708V21.0827C144.708 23.2285 145.677 24.0827 147.99 24.0827Z" fill="#307DFB"/>
<path d="M152.708 10.6035C153.396 10.6035 153.958 10.041 153.958 9.35352C153.958 8.66602 153.396 8.10352 152.708 8.10352C152.021 8.10352 151.458 8.66602 151.458 9.35352C151.458 10.041 152.021 10.6035 152.708 10.6035ZM151.792 23.9993H153.604V12.7702H151.792V23.9993Z" fill="#307DFB"/>
<path d="M157.021 23.9993H158.833V17.3535C158.833 15.3848 159.969 14.1764 161.76 14.1764C163.552 14.1764 164.385 15.1452 164.385 17.166V23.9993H166.198V16.7285C166.198 14.0618 164.792 12.5723 162.271 12.5723C160.615 12.5723 159.562 13.2702 159 14.4577H158.833V12.7702H157.021V23.9993Z" fill="#307DFB"/>
<path d="M174.104 27.9577C177.167 27.9577 179.104 26.3535 179.104 23.8431V12.7702H177.292V14.6243H177.167C176.479 13.3535 175.25 12.5723 173.667 12.5723C170.729 12.5723 168.917 14.8535 168.917 17.9993V18.0202C168.917 21.166 170.719 23.416 173.625 23.416C175.167 23.416 176.437 22.7181 177.146 21.4785H177.312V23.7493C177.312 25.4056 176.115 26.3535 174.104 26.3535C172.49 26.3535 171.49 25.7493 171.292 24.8952L171.281 24.8848H169.406L169.385 24.8952C169.667 26.7389 171.396 27.9577 174.104 27.9577ZM174.021 21.8118C171.937 21.8118 170.771 20.2493 170.771 18.0202V17.9993C170.771 15.7702 171.937 14.1764 174.021 14.1764C176.094 14.1764 177.354 15.7702 177.354 17.9993V18.0202C177.354 20.2493 176.104 21.8118 174.021 21.8118Z" fill="#307DFB"/>
<path fill-rule="evenodd" clip-rule="evenodd" d="M13.8794 9.58672C13.3532 6.00875 10.2834 3.35742 6.66699 3.35742V28.5426H16.667L13.8794 9.58672ZM19.4546 22.3137C19.9808 25.8916 23.0505 28.543 26.667 28.543V3.35778H16.667L19.4546 22.3137Z" fill="#307DFB"/>
</svg>
