<svg width="240" height="172" viewBox="0 0 240 172" fill="none" xmlns="http://www.w3.org/2000/svg">
<circle cx="120" cy="131" r="5" fill="#C0C6CB"/>
<path d="M114.266 41.9941C114.121 38.7276 116.73 36 120 36C123.27 36 125.879 38.7276 125.734 41.9941L124 81H116L114.266 41.9941Z" fill="#DADEE3"/>
<rect x="114" y="68" width="12" height="5" rx="2.5" fill="#C0C6CB"/>
<path d="M97 93C97 80.2975 107.297 70 120 70C132.703 70 143 80.2975 143 93V123H97V93Z" fill="#EAEDF0"/>
<path d="M94 120C94 118.895 94.8954 118 96 118H144C145.105 118 146 118.895 146 120V127C146 128.105 145.105 129 144 129H96C94.8954 129 94 128.105 94 127V120Z" fill="#DADEE3"/>
</svg>
