<svg width="16" height="16" viewBox="0 0 16 16" fill="none" xmlns="http://www.w3.org/2000/svg">
<path d="M3.34525 7.99951C3.34525 7.49151 3.43192 7.00418 3.58525 6.54751L0.89325 4.53418C0.352383 5.60916 0.0715106 6.79613 0.0732502 7.99951C0.0732502 9.24485 0.367917 10.4195 0.891917 11.4622L3.58258 9.44551C3.42569 8.97954 3.34554 8.49118 3.34525 7.99951Z" fill="#FBBC05"/>
<path d="M8.07355 3.37773C9.20022 3.37773 10.2182 3.7684 11.0182 4.4084L13.3456 2.13307C11.9276 0.924401 10.1096 0.177734 8.07355 0.177734C4.91222 0.177734 2.19489 1.94773 0.893555 4.5344L3.58689 6.54773C4.20689 4.70373 5.97489 3.37773 8.07355 3.37773Z" fill="#EA4335"/>
<path d="M8.07355 12.6221C5.97422 12.6221 4.20622 11.2961 3.58555 9.45215L0.893555 11.4655C2.19422 14.0521 4.91155 15.8221 8.07355 15.8221C10.0242 15.8221 11.8869 15.1441 13.2856 13.8728L10.7296 11.9381C10.0089 12.3828 9.10089 12.6221 8.07289 12.6221" fill="#34A853"/>
<path d="M15.7089 8.00013C15.7089 7.53813 15.6356 7.04013 15.5269 6.57812H8.07227V9.60013H12.3629C12.1489 10.6308 11.5649 11.4228 10.7296 11.9381L13.2849 13.8728C14.7536 12.5381 15.7089 10.5501 15.7089 8.00013Z" fill="#4285F4"/>
</svg>
