<svg width="187" height="32" viewBox="0 0 187 32" fill="none" xmlns="http://www.w3.org/2000/svg">
<path d="M39.25 23.9998H41.1042V12.3436H41.2708L49.4271 23.9998H51.25V8.96859H49.3958V20.6665H49.2292L41.0729 8.96859H39.25V23.9998Z" fill="#307DFB"/>
<path d="M59.4687 24.1978C62.6667 24.1978 64.6458 21.9894 64.6458 18.3957V18.3748C64.6458 14.7707 62.6667 12.5728 59.4687 12.5728C56.2708 12.5728 54.2917 14.7707 54.2917 18.3748V18.3957C54.2917 21.9894 56.2708 24.1978 59.4687 24.1978ZM59.4687 22.5936C57.3437 22.5936 56.1458 21.0415 56.1458 18.3957V18.3748C56.1458 15.7186 57.3437 14.1769 59.4687 14.1769C61.5937 14.1769 62.7917 15.7186 62.7917 18.3748V18.3957C62.7917 21.0415 61.5937 22.5936 59.4687 22.5936Z" fill="#307DFB"/>
<path d="M71.4479 24.0832C71.8021 24.0832 72.1458 24.0415 72.5 23.979V22.4373C72.1667 22.4686 71.9896 22.479 71.6667 22.479C70.5 22.479 70.0417 21.9478 70.0417 20.6248V14.2707H72.5V12.7707H70.0417V9.86442H68.1667V12.7707H66.3958V14.2707H68.1667V21.0832C68.1667 23.229 69.1354 24.0832 71.4479 24.0832Z" fill="#307DFB"/>
<path d="M79.1979 24.0832C79.5521 24.0832 79.8958 24.0415 80.25 23.979V22.4373C79.9167 22.4686 79.7396 22.479 79.4167 22.479C78.25 22.479 77.7917 21.9478 77.7917 20.6248V14.2707H80.25V12.7707H77.7917V9.86442H75.9167V12.7707H74.1458V14.2707H75.9167V21.0832C75.9167 23.229 76.8854 24.0832 79.1979 24.0832Z" fill="#307DFB"/>
<path d="M86.0417 24.1978C87.5521 24.1978 88.7292 23.5415 89.4375 22.3436H89.6042V23.9998H91.4167V16.3123C91.4167 13.979 89.8854 12.5728 87.1458 12.5728C84.75 12.5728 83.0417 13.7603 82.75 15.5207L82.7396 15.5832H84.5521L84.5625 15.5519C84.8542 14.6769 85.7396 14.1769 87.0833 14.1769C88.7604 14.1769 89.6042 14.9269 89.6042 16.3123V17.3332L86.3854 17.5311C83.7708 17.6873 82.2917 18.8436 82.2917 20.8436V20.8644C82.2917 22.9061 83.9062 24.1978 86.0417 24.1978ZM84.1458 20.8228V20.8019C84.1458 19.6873 84.8958 19.0832 86.6042 18.979L89.6042 18.7915V19.8123C89.6042 21.4165 88.2604 22.6248 86.4167 22.6248C85.1146 22.6248 84.1458 21.9582 84.1458 20.8228Z" fill="#307DFB"/>
<path d="M96.2083 24.104C96.9583 24.104 97.5625 23.4894 97.5625 22.7498C97.5625 21.9998 96.9583 21.3957 96.2083 21.3957C95.4687 21.3957 94.8542 21.9998 94.8542 22.7498C94.8542 23.4894 95.4687 24.104 96.2083 24.104Z" fill="#307DFB"/>
<path d="M101.062 23.9998H102.875V17.0415C102.875 15.4582 103.99 14.1769 105.458 14.1769C106.875 14.1769 107.792 15.0415 107.792 16.3748V23.9998H109.604V16.7811C109.604 15.354 110.635 14.1769 112.198 14.1769C113.781 14.1769 114.542 14.9998 114.542 16.6561V23.9998H116.354V16.2394C116.354 13.8853 115.073 12.5728 112.781 12.5728C111.229 12.5728 109.948 13.354 109.344 14.5415H109.177C108.656 13.3748 107.594 12.5728 106.073 12.5728C104.604 12.5728 103.542 13.2707 103.042 14.479H102.875V12.7707H101.062V23.9998Z" fill="#307DFB"/>
<path d="M124.208 24.1978C126.854 24.1978 128.458 22.6978 128.844 21.1769L128.865 21.0936H127.052L127.01 21.1873C126.708 21.8644 125.771 22.5832 124.25 22.5832C122.25 22.5832 120.969 21.229 120.917 18.9061H129V18.1978C129 14.8436 127.146 12.5728 124.094 12.5728C121.042 12.5728 119.062 14.9478 119.062 18.4165V18.4269C119.062 21.9478 121 24.1978 124.208 24.1978ZM124.083 14.1873C125.74 14.1873 126.969 15.2394 127.156 17.4582H120.948C121.146 15.3228 122.417 14.1873 124.083 14.1873Z" fill="#307DFB"/>
<path d="M136.396 24.1978C139.042 24.1978 140.646 22.6978 141.031 21.1769L141.052 21.0936H139.24L139.198 21.1873C138.896 21.8644 137.958 22.5832 136.437 22.5832C134.437 22.5832 133.156 21.229 133.104 18.9061H141.187V18.1978C141.187 14.8436 139.333 12.5728 136.281 12.5728C133.229 12.5728 131.25 14.9478 131.25 18.4165V18.4269C131.25 21.9478 133.187 24.1978 136.396 24.1978ZM136.271 14.1873C137.927 14.1873 139.156 15.2394 139.344 17.4582H133.135C133.333 15.3228 134.604 14.1873 136.271 14.1873Z" fill="#307DFB"/>
<path d="M147.99 24.0832C148.344 24.0832 148.687 24.0415 149.042 23.979V22.4373C148.708 22.4686 148.531 22.479 148.208 22.479C147.042 22.479 146.583 21.9478 146.583 20.6248V14.2707H149.042V12.7707H146.583V9.86442H144.708V12.7707H142.937V14.2707H144.708V21.0832C144.708 23.229 145.677 24.0832 147.99 24.0832Z" fill="#307DFB"/>
<path d="M152.708 10.604C153.396 10.604 153.958 10.0415 153.958 9.354C153.958 8.6665 153.396 8.104 152.708 8.104C152.021 8.104 151.458 8.6665 151.458 9.354C151.458 10.0415 152.021 10.604 152.708 10.604ZM151.792 23.9998H153.604V12.7707H151.792V23.9998Z" fill="#307DFB"/>
<path d="M157.021 23.9998H158.833V17.354C158.833 15.3853 159.969 14.1769 161.76 14.1769C163.552 14.1769 164.385 15.1457 164.385 17.1665V23.9998H166.198V16.729C166.198 14.0623 164.792 12.5728 162.271 12.5728C160.615 12.5728 159.562 13.2707 159 14.4582H158.833V12.7707H157.021V23.9998Z" fill="#307DFB"/>
<path d="M174.104 27.9582C177.167 27.9582 179.104 26.354 179.104 23.8436V12.7707H177.292V14.6248H177.167C176.479 13.354 175.25 12.5728 173.667 12.5728C170.729 12.5728 168.917 14.854 168.917 17.9998V18.0207C168.917 21.1665 170.719 23.4165 173.625 23.4165C175.167 23.4165 176.437 22.7186 177.146 21.479H177.312V23.7498C177.312 25.4061 176.115 26.354 174.104 26.354C172.49 26.354 171.49 25.7498 171.292 24.8957L171.281 24.8853H169.406L169.385 24.8957C169.667 26.7394 171.396 27.9582 174.104 27.9582ZM174.021 21.8123C171.937 21.8123 170.771 20.2498 170.771 18.0207V17.9998C170.771 15.7707 171.937 14.1769 174.021 14.1769C176.094 14.1769 177.354 15.7707 177.354 17.9998V18.0207C177.354 20.2498 176.104 21.8123 174.021 21.8123Z" fill="#307DFB"/>
<path fill-rule="evenodd" clip-rule="evenodd" d="M13.8791 9.58721C13.3529 6.00924 10.2832 3.35791 6.66675 3.35791V28.5431H16.6667L13.8791 9.58721ZM19.4544 22.3142C19.9806 25.8921 23.0503 28.5435 26.6667 28.5435V3.35827H16.6667L19.4544 22.3142Z" fill="#307DFB"/>
</svg>
