<svg width="240" height="172" viewBox="0 0 240 172" fill="none" xmlns="http://www.w3.org/2000/svg">
<mask id="path-1-inside-1" fill="white">
<rect x="39.7792" y="33" width="160.442" height="100" rx="2"/>
</mask>
<rect x="39.7792" y="33" width="160.442" height="100" rx="2" fill="white" stroke="#DADEE3" stroke-width="8" mask="url(#path-1-inside-1)"/>
<path d="M35 69C35 67.8954 35.8954 67 37 67H40V172H35V69Z" fill="#EAEDF0"/>
<path d="M200 67H203C204.105 67 205 67.8954 205 69V172H200V67Z" fill="#EAEDF0"/>
<path d="M204.74 74H206C206.552 74 207 74.4477 207 75V81C207 81.5523 206.552 82 206 82H204.74V74Z" fill="#C0C6CB"/>
<path d="M33 75C33 74.4477 33.4477 74 34 74H35.2597V82H34C33.4477 82 33 81.5523 33 81V75Z" fill="#C0C6CB"/>
<path d="M40 120H200V130C200 131.105 199.105 132 198 132H42C40.8954 132 40 131.105 40 130V120Z" fill="#DADEE3"/>
<rect x="56" y="53" width="115" height="8" fill="#EAEDF0"/>
<rect x="56" y="73" width="48" height="8" fill="#EAEDF0"/>
</svg>
