<svg width="246" height="172" viewBox="0 0 246 172" fill="none" xmlns="http://www.w3.org/2000/svg">
<path d="M63 117H183L173.71 89.7109C173.158 88.09 171.636 87 169.924 87H76.0765C74.3641 87 72.8417 88.09 72.2899 89.7109L63 117Z" fill="#C0C6CB"/>
<rect x="80" y="42" width="86" height="94" rx="2" fill="#EAEDF0"/>
<path d="M101.298 119C101.298 117.895 100.402 117 99.2979 117H63V151C63 153.209 65.2862 155 68.1064 155H177.894C180.714 155 183 153.209 183 151V117H146.702C145.598 117 144.702 117.895 144.702 119V123C144.702 125.209 142.911 127 140.702 127H105.298C103.089 127 101.298 125.209 101.298 123V119Z" fill="#DADEE3"/>
<rect x="89" y="51" width="68" height="28" rx="2" fill="#DADEE3"/>
<rect x="89" y="87" width="68" height="4" rx="2" fill="#DADEE3"/>
<rect x="89" y="99" width="50" height="4" rx="2" fill="#DADEE3"/>
</svg>
