<svg width="240" height="172" viewBox="0 0 240 172" fill="none" xmlns="http://www.w3.org/2000/svg">

<circle cx="122" cy="136" r="6" transform="rotate(-180 122 136)" fill="#DADEE3"/>
<circle cx="120" cy="133" r="4" transform="rotate(-180 120 133)" fill="#DADEE3"/>
<circle cx="125" cy="128" r="6" transform="rotate(-180 125 128)" fill="#DADEE3"/>
<ellipse cx="132.5" cy="134.5" rx="6.5" ry="6.5" transform="rotate(-180 132.5 134.5)" fill="#EAEDF0"/>
<ellipse cx="111" cy="131" rx="6" ry="6" transform="rotate(-180 111 131)" fill="#EAEDF0"/>
<circle cx="127" cy="125" r="8" transform="rotate(-180 127 125)" fill="#EAEDF0"/>
<circle cx="116" cy="122" r="8" transform="rotate(-180 116 122)" fill="#DADEE3"/>
<rect x="93" y="114" width="54" height="6" rx="2" fill="#DADEE3"/>
<path d="M86 83.0555C86 61.449 99.6253 42.1911 120 35C140.375 42.1911 154 61.449 154 83.0555V112.173C154 114.839 151.839 117 149.173 117H90.827C88.1611 117 86 114.839 86 112.173V83.0555Z" fill="#EAEDF0"/>
<path d="M156.45 100H154V112C154 112 160.72 114.83 164.046 118.704C164.653 119.411 165.639 119.217 165.64 118.285C165.641 115.792 165.521 112.015 165.384 108.54C165.196 103.752 161.241 100 156.45 100Z" fill="#DADEE3"/>
<path d="M83.5503 100H86V112C86 112 79.2799 114.83 75.9538 118.704C75.347 119.411 74.3606 119.217 74.36 118.285C74.3586 115.792 74.4791 112.015 74.6159 108.54C74.8045 103.752 78.7589 100 83.5503 100Z" fill="#DADEE3"/>

</svg>
