<svg width="240" height="172" viewBox="0 0 240 172" fill="none" xmlns="http://www.w3.org/2000/svg">
<rect x="75" y="30" width="95" height="122" rx="2" fill="#EAEDF0"/>
<rect x="81" y="33" width="83" height="116" fill="white"/>
<path fill-rule="evenodd" clip-rule="evenodd" d="M116.304 20.5065C114.959 22.7887 112.945 25 110.296 25H90C87.7909 25 86 26.7909 86 29V35H159V29C159 26.7909 157.209 25 155 25H134.704C132.055 25 130.041 22.7887 128.696 20.5065C127.444 18.3815 125.328 17 122.5 17C119.672 17 117.556 18.3815 116.304 20.5065ZM122.5 29C124.433 29 126 27.433 126 25.5C126 23.567 124.433 22 122.5 22C120.567 22 119 23.567 119 25.5C119 27.433 120.567 29 122.5 29Z" fill="#DADEE3"/>
<rect x="91" y="54" width="64" height="8" fill="#EAEDF0"/>
<rect x="91" y="74" width="48" height="8" fill="#EAEDF0"/>
</svg>
