<svg width="240" height="172" viewBox="0 0 240 172" fill="none" xmlns="http://www.w3.org/2000/svg">
<g clip-path="url(#clip0)">
<rect x="123" y="66" width="7" height="120" fill="#DADEE3"/>
<path d="M85 70C85 62.268 91.268 56 99 56H154C161.732 56 168 62.268 168 70V100H85V70Z" fill="#EAEDF0"/>
<path d="M85 70C85 62.268 91.268 56 99 56H101C108.732 56 115 62.268 115 70V100H85V70Z" fill="#DADEE3"/>
<rect x="123" y="36" width="4" height="45" fill="#DADEE3"/>
<path d="M137 40.5C137 38.0147 134.985 36 132.5 36H123V45H132.5C134.985 45 137 42.9853 137 40.5Z" fill="#DADEE3"/>
<path d="M68.3267 100.413C65.9371 96.697 67.0127 91.7472 70.729 89.3576L81.6637 82.3267C85.38 79.9371 90.3298 81.0127 92.7194 84.729L99.7503 95.6637L82.0866 107.021C78.3703 109.411 73.4205 108.335 71.0309 104.619L68.3267 100.413Z" fill="#EAEDF0"/>
<circle cx="75.609" cy="98.6967" r="1.89247" transform="rotate(-32.7407 75.609 98.6967)" fill="#C0C6CB"/>
<circle cx="81.6868" cy="94.7887" r="1.89247" transform="rotate(-32.7407 81.6868 94.7887)" fill="#C0C6CB"/>
<circle cx="87.7646" cy="90.8807" r="1.89247" transform="rotate(-32.7407 87.7646 90.8807)" fill="#C0C6CB"/>
</g>
<defs>
<clipPath id="clip0">
<rect width="240" height="172" fill="white"/>
</clipPath>
</defs>
</svg>
