<svg width="240" height="172" viewBox="0 0 240 172" fill="none" xmlns="http://www.w3.org/2000/svg">
<rect x="81" y="44" width="93" height="12" fill="#DADEE3"/>
<path fill-rule="evenodd" clip-rule="evenodd" d="M70 55C72.7614 55 75 52.7614 75 50C75 49.1589 74.7923 48.3662 74.4254 47.6706L69.798 52.298L69.4444 52.6516L69.0909 52.298L66.8687 50.0758L67.5758 49.3687L69.4444 51.2373L73.8601 46.8217C72.943 45.7092 71.5543 45 70 45C67.2386 45 65 47.2386 65 50C65 52.7614 67.2386 55 70 55Z" fill="#DADEE3"/>
<rect x="81" y="68" width="93" height="12" fill="#EAEDF0"/>
<path d="M75 74C75 76.7614 72.7614 79 70 79C67.2386 79 65 76.7614 65 74C65 71.2386 67.2386 69 70 69C72.7614 69 75 71.2386 75 74Z" fill="#EAEDF0"/>
<rect x="81" y="92" width="93" height="12" fill="#EAEDF0"/>
<path d="M75 98C75 100.761 72.7614 103 70 103C67.2386 103 65 100.761 65 98C65 95.2386 67.2386 93 70 93C72.7614 93 75 95.2386 75 98Z" fill="#EAEDF0"/>
<rect x="81" y="116" width="93" height="12" fill="#EAEDF0"/>
<path d="M75 122C75 124.761 72.7614 127 70 127C67.2386 127 65 124.761 65 122C65 119.239 67.2386 117 70 117C72.7614 117 75 119.239 75 122Z" fill="#EAEDF0"/>
</svg>
