<svg width="240" height="172" viewBox="0 0 240 172" fill="none" xmlns="http://www.w3.org/2000/svg">
<g clip-path="url(#clip0)">
<path fill-rule="evenodd" clip-rule="evenodd" d="M133 53.9896C131.895 53.9896 131 54.8851 131 55.9896V59.9896C131 61.0942 131.895 61.9896 133 61.9896H164C165.105 61.9896 166 61.0942 166 59.9896V55.9896C166 54.8851 165.105 53.9896 164 53.9896H133ZM136 60C137.105 60 138 59.1046 138 58C138 56.8954 137.105 56 136 56C134.895 56 134 56.8954 134 58C134 59.1046 134.895 60 136 60Z" fill="#DADEE3"/>
<path fill-rule="evenodd" clip-rule="evenodd" d="M133 94C131.895 94 131 94.8954 131 96V100C131 101.105 131.895 102 133 102H164C165.105 102 166 101.105 166 100V96C166 94.8954 165.105 94 164 94H133ZM136 100.01C137.105 100.01 138 99.1149 138 98.0104C138 96.9058 137.105 96.0104 136 96.0104C134.895 96.0104 134 96.9058 134 98.0104C134 99.1149 134.895 100.01 136 100.01Z" fill="#DADEE3"/>
<path d="M187 79.0812C203.579 83.2791 241.226 89.708 259.178 81.8404" stroke="#DADEE3" stroke-width="8"/>
<path d="M-4.5 100C10.2566 91.3546 39.5 80.4896 64.5596 79.4856" stroke="#DADEE3" stroke-width="8"/>
<path fill-rule="evenodd" clip-rule="evenodd" d="M146 122.764C146 124.445 147.386 125.808 149.061 125.664C173.117 123.606 192 103.427 192 78.8374C192 54.2481 173.117 34.0692 149.061 32.0104C147.386 31.867 146 33.2297 146 34.9111V122.764Z" fill="#EAEDF0"/>
<path fill-rule="evenodd" clip-rule="evenodd" d="M58 78.8374C58 54.2481 76.8829 34.0692 100.939 32.0104C102.614 31.867 104 33.2297 104 34.9111V51.8374C104 52.942 103.105 53.8374 102 53.8374C100.895 53.8374 100 54.7328 100 55.8374V59.8374C100 60.942 100.895 61.8374 102 61.8374C103.105 61.8374 104 62.7328 104 63.8374V91.8374C104 92.942 103.105 93.8374 102 93.8374C100.895 93.8374 100 94.7328 100 95.8374V99.8374C100 100.942 100.895 101.837 102 101.837C103.105 101.837 104 102.733 104 103.837V122.764C104 124.445 102.614 125.808 100.939 125.664C76.8829 123.606 58 103.427 58 78.8374Z" fill="#EAEDF0"/>
<path d="M113.547 133.875H116.562V148.906H118.109V151.391H116.562V158H113.547V151.391H106.938V148.625L113.547 133.875ZM113.547 148.906V138.781L109.484 148.906H113.547ZM131.328 146.125C131.328 150.458 130.911 153.583 130.078 155.5C129.255 157.354 127.854 158.281 125.875 158.281C123.896 158.281 122.49 157.349 121.656 155.484C120.833 153.672 120.422 150.49 120.422 145.938C120.422 141.385 120.833 138.203 121.656 136.391C122.479 134.516 123.88 133.578 125.859 133.578C127.693 133.578 129.047 134.401 129.922 136.047C130.859 137.786 131.328 141.146 131.328 146.125ZM128.016 146.125C128.016 142.479 127.859 139.958 127.547 138.562C127.234 137.177 126.667 136.484 125.844 136.484C125.021 136.484 124.448 137.172 124.125 138.547C123.812 139.922 123.656 142.396 123.656 145.969C123.656 149.542 123.812 152.021 124.125 153.406C124.448 154.781 125.021 155.469 125.844 155.469C126.656 155.469 127.219 154.786 127.531 153.422C127.854 152.12 128.016 149.688 128.016 146.125ZM140.078 133.875H143.094V148.906H144.641V151.391H143.094V158H140.078V151.391H133.469V148.625L140.078 133.875ZM140.078 148.906V138.781L136.016 148.906H140.078Z" fill="#C0C6CB"/>
</g>
<defs>
<clipPath id="clip0">
<rect width="240" height="172" fill="white"/>
</clipPath>
</defs>
</svg>
