<svg width="38" height="38" viewBox="0 0 38 38" fill="none" xmlns="http://www.w3.org/2000/svg">
<path d="M30.6505 27.738C32.2525 27.738 33.5486 26.4273 33.5486 24.8254L33.5632 10.2623C33.5632 8.64578 32.2525 7.34967 30.6505 7.34967H7.34963C5.73313 7.34967 4.43702 8.64578 4.43702 10.2623V24.8254C4.43702 26.4273 5.73313 27.738 7.34963 27.738H2.46989C1.94771 27.738 1.5244 28.1613 1.5244 28.6834V29.7051C1.5244 30.2273 1.94771 30.6506 2.46989 30.6506H35.5303C36.0525 30.6506 36.4758 30.2273 36.4758 29.7051V28.6834C36.4758 28.1613 36.0525 27.738 35.5303 27.738H30.6505ZM20.4564 22.5972V19.4079C16.4079 19.4079 13.7428 20.6458 11.7185 23.369C12.5341 19.4807 14.7914 15.6069 20.4564 14.8205V11.7186L26.2816 17.1506L20.4564 22.5972Z" fill="#307DFB"/>
</svg>
