<svg width="38" height="38" viewBox="0 0 38 38" fill="none" xmlns="http://www.w3.org/2000/svg">
<path d="M30.7415 20.4579H7.25866C6.49892 20.4579 5.87732 21.114 5.87732 21.916V30.6645C5.87732 31.4664 6.49892 32.1226 7.25866 32.1226H30.7415C31.5012 32.1226 32.1228 31.4664 32.1228 30.6645V21.916C32.1228 21.114 31.5012 20.4579 30.7415 20.4579ZM30.7415 5.87708H7.25866C6.49892 5.87708 5.87732 6.53321 5.87732 7.33516V16.0837C5.87732 16.8856 6.49892 17.5417 7.25866 17.5417H30.7415C31.5012 17.5417 32.1228 16.8856 32.1228 16.0837V7.33516C32.1228 6.53321 31.5012 5.87708 30.7415 5.87708Z" fill="#307DFB"/>
</svg>
