<svg width="38" height="38" viewBox="0 0 38 38" fill="none" xmlns="http://www.w3.org/2000/svg">
<path d="M12.2758 21.1895H11.7674C9.18084 21.1895 7.06189 19.0742 7.06189 16.484V8.04531C7.0656 5.45508 9.18084 3.33984 11.7674 3.33984H12.2758C14.8623 3.33984 16.9812 5.45508 16.9812 8.04531V16.4877C16.9775 19.0742 14.8623 21.1895 12.2758 21.1895Z" fill="#307DFB"/>
<path d="M19.9388 22.1469C19.4972 21.7943 18.8033 21.8166 18.3877 22.1914C16.8699 23.5904 14.7992 24.3549 12.5689 24.3549C8.1863 24.3549 4.61638 21.3045 4.61638 17.5527C4.61638 17.0369 4.12654 16.6139 3.51794 16.6139C2.90935 16.6139 2.42322 17.0369 2.42322 17.5564C2.42322 22.0207 6.38279 25.7057 11.4556 26.1807V28.6596C11.4556 29.1346 11.8898 29.5168 12.4316 29.5168H12.6172C12.8064 29.5168 13.5931 29.1346 13.5931 28.6596V26.1881C16.0238 25.9766 18.3135 25.0117 19.9945 23.4717C20.4064 23.0969 20.3804 22.5031 19.9388 22.1469Z" fill="#307DFB"/>
<path d="M19.9388 21.7498C19.4972 21.3973 18.8033 21.4195 18.3877 21.7943C16.8699 23.1934 14.7992 23.9615 12.5689 23.9615C8.1863 23.9615 4.61638 20.9111 4.61638 17.1594C4.61638 16.6436 4.12654 16.2205 3.51794 16.2205C2.90935 16.2205 2.42322 16.6436 2.42322 17.1631C2.42322 21.6274 6.38279 25.316 11.4556 25.791V29.5799C11.4556 30.0549 11.8898 30.4371 12.4316 30.4371H12.6172C13.1552 30.4371 13.5931 30.0549 13.5931 29.5799V25.7984C16.2836 25.5647 18.2875 24.6443 19.9945 23.082C20.4064 22.6998 20.3804 22.1061 19.9388 21.7498Z" fill="#307DFB"/>
<path d="M34.1221 17.549C34.8791 17.549 35.4951 18.165 35.4951 18.9221V33.5283C35.4951 34.2853 34.8791 34.9014 34.1221 34.9014H19.5195C18.7625 34.9014 18.1465 34.2891 18.1465 33.5283V18.9221C18.1502 18.165 18.7625 17.5527 19.5195 17.549H34.1221ZM21.7609 20.733V24.1471L22.21 24.1322C22.3695 22.8891 23.3678 22.0355 23.9467 21.9057C24.5256 21.7609 25.624 21.9205 25.624 21.9205C25.624 21.9205 25.6092 30.0475 25.6092 30.541C25.6092 31.0346 24.9412 31.2461 24.9412 31.2461L24.0432 31.2609L24.0283 31.8695H29.6133V31.2609H28.5854C28.1215 31.2164 27.8469 30.6264 27.8469 30.6264L27.8617 21.8351C27.8617 21.8351 28.5557 21.7053 29.5687 21.8945C30.5818 22.0801 31.4354 24.1805 31.4354 24.1805H31.8844V20.7367L21.7609 20.733ZM27.8098 13.8715C26.9266 9.06581 20.7701 5.79648 20.707 5.76679L21.7201 3.82968C22.0133 3.98183 28.8859 7.63339 29.9584 13.4781L27.8098 13.8715Z" fill="#307DFB"/>
<path d="M30.7488 13.3074L29.4908 16.8811L27.0267 14.0051L30.7488 13.3074Z" fill="#307DFB"/>
</svg>
