<svg width="38" height="38" viewBox="0 0 38 38" fill="none" xmlns="http://www.w3.org/2000/svg">
<path d="M15.7235 4.51416H22.4405H22.2767C22.932 4.51416 23.5873 5.31894 23.5873 6.12371C23.5873 6.92849 22.932 7.57231 22.2767 7.57231H15.7235C14.9043 7.57231 14.249 7.08945 14.249 6.12371C14.249 5.15798 14.9043 4.51416 15.7235 4.51416ZM28.3039 6.12371C30.106 6.28467 31.4166 7.57231 31.4166 9.34282V30.267C31.4166 32.0375 29.9422 33.4861 28.14 33.4861H9.86009C8.05796 33.4861 6.5835 32.0375 6.5835 30.267V9.34282C6.5835 7.57231 7.89413 6.28467 9.69626 6.12371H12.1192V6.60658C12.1192 7.73327 13.1022 9.02091 14.249 9.02091H23.7511C24.7341 9.02091 25.7171 7.89422 25.7171 6.60658V6.12371H28.3039ZM26.3724 17.5515C26.7001 17.3906 26.8639 17.0687 26.8639 16.7468C26.8639 16.4249 26.7001 16.1029 26.5362 15.942C26.0447 15.4591 25.2256 15.4591 24.7341 15.942L18.0171 22.2193L14.4128 19.0001C14.249 18.8392 13.9213 18.6782 13.5937 18.6782C13.266 18.6782 12.9384 18.8392 12.7745 19.0001C12.4469 19.1611 12.4469 19.483 12.4469 19.8049C12.4469 20.1268 12.4469 20.4487 12.7745 20.6097L17.0341 24.6336C17.5256 25.1165 18.3447 25.1165 18.8362 24.6336L26.3724 17.5515Z" fill="#307DFB"/>
</svg>
